<svg xmlns="http://www.w3.org/2000/svg" xmlns:xlink="http://www.w3.org/1999/xlink" x="0" y="0" width="662" height="485" style="
        width:662px;
        height:485px;
        background: #FFF;
        fill: none;
">
        <svg xmlns="http://www.w3.org/2000/svg"/>
        
        <svg xmlns="http://www.w3.org/2000/svg" class="role-diagram-draw-area"><g class="shapes-region" style="stroke: black; fill: none;"><g class="shape"><path class="real" d=" M200.29,226.29 C321.67,182.17 274.67,66.17 379.29,39.86 C513.58,8.34 609.4,162.73 528.29,299.29 C460.47,400.39 332.06,450.99 213.71,427.35 C100.69,398.47 83.67,268.17 200.29,226.29 Z" style="stroke: rgb(0, 0, 0); stroke-opacity: 1; stroke-width: 2; fill: none; fill-opacity: 1; stroke-linejoin: round; stroke-linecap: round;"/></g><g class="composite-shape"><path class="real" d=" M280,231.98 C280,165.72 333.73,112 400,112 C466.27,112 520,165.72 520,231.98 C520,298.25 466.27,351.96 400,351.96 C333.73,351.96 280,298.25 280,231.98 Z" style="stroke-width: 2; stroke: rgb(0, 0, 0); fill: none; fill-opacity: 1;"/></g><g class="composite-shape"><path class="real" d=" M399,231.98 C399,231.43 399.45,230.98 400,230.98 C400.55,230.98 401,231.43 401,231.98 C401,232.53 400.55,232.98 400,232.98 C399.45,232.98 399,232.53 399,231.98 Z" style="stroke-width: 2; stroke: rgb(0, 0, 0); fill: rgb(0, 0, 0); fill-opacity: 1;"/></g><g class="composite-shape"><path class="real" d=" M360,232 C360,209.91 377.91,192 400,192 C422.09,192 440,209.91 440,232 C440,254.09 422.09,272 400,272 C377.91,272 360,254.09 360,232 Z" style="stroke-width: 2; stroke: rgb(0, 0, 0); fill: none; fill-opacity: 1;"/></g><g class="composite-shape"><path class="real" d=" M360,251.83 C360,218.7 386.86,191.83 420,191.83 C453.14,191.83 480,218.7 480,251.83 C480,284.97 453.14,311.83 420,311.83 C386.86,311.83 360,284.97 360,251.83 Z" style="stroke-width: 2; stroke: rgb(0, 0, 0); fill: none; fill-opacity: 1;"/></g><g class="composite-shape"><path class="real" d=" M419,251.83 C419,251.28 419.45,250.83 420,250.83 C420.55,250.83 421,251.28 421,251.83 C421,252.39 420.55,252.83 420,252.83 C419.45,252.83 419,252.39 419,251.83 Z" style="stroke-width: 2; stroke: rgb(0, 0, 0); fill: rgb(0, 0, 0); fill-opacity: 1;"/></g><g/></g><g/><g/><g/></svg>
        <svg xmlns="http://www.w3.org/2000/svg" xmlns:xlink="http://www.w3.org/1999/xlink" width="660" height="483" style="width:660px;height:483px;font-family:Asana-Math, Asana;background:#FFF;"><g><g><g><text x="207" y="320.3999938964844" style="white-space:pre;stroke:none;fill:rgb(0,0,0);fill-opacity:1;font-size:37.35px;font-family:Arial, Helvetica, sans-serif;font-weight:400;font-style:normal;dominant-baseline:text-before-edge;text-decoration:none solid rgb(0, 0, 0);">U</text></g></g></g><g><g><g><text x="394" y="200.875" style="white-space:pre;stroke:none;fill:rgb(0,0,0);fill-opacity:1;font-size:25.95px;font-family:Arial, Helvetica, sans-serif;font-weight:400;font-style:normal;dominant-baseline:text-before-edge;text-decoration:none solid rgb(0, 0, 0);">x</text></g></g></g><g><g><g><text x="414.20001220703125" y="217.17501831054688" style="white-space:pre;stroke:none;fill:rgb(0,0,0);fill-opacity:1;font-size:25.95px;font-family:Arial, Helvetica, sans-serif;font-weight:400;font-style:normal;dominant-baseline:text-before-edge;text-decoration:none solid rgb(0, 0, 0);">y</text></g></g></g></svg>
</svg>
